<svg xmlns="http://www.w3.org/2000/svg" viewBox="0 0 64 64">
  <defs>
    <linearGradient id="grad" x1="0%" y1="0%" x2="100%" y2="100%">
      <stop offset="0%" stop-color="#059669" />
      <stop offset="100%" stop-color="#2563eb" />
    </linearGradient>
  </defs>
  <rect width="64" height="64" rx="14" fill="url(#grad)" />
  <!-- Flask Icon -->
  <path d="M26 14h12v4h-2v10.5l9.2 15.3c1.5 2.5-.3 5.7-3.2 5.7H22c-2.9 0-4.7-3.2-3.2-5.7L28 28.5V18h-2v-4z" fill="#ffffff" />
  <!-- Chemical Liquid -->
  <path d="M22.8 44.5c3.2-1.5 6.4 1 9.6-.5 3.2-1.5 6.4 1 9.6 0l2 3.3c.7 1.2-.2 2.7-1.6 2.7H21.6c-1.4 0-2.3-1.5-1.6-2.7l2.8-2.8z" fill="#93c5fd" opacity="0.9" />
  <!-- Bubbles -->
  <circle cx="28" cy="38" r="1.8" fill="#ffffff" opacity="0.8" />
  <circle cx="35" cy="35" r="2.2" fill="#ffffff" opacity="0.8" />
  <circle cx="33" cy="41" r="1.4" fill="#ffffff" opacity="0.8" />
</svg>